<?xml version="1.0" encoding="UTF-8"?>
<svg id="Calque_1" xmlns="http://www.w3.org/2000/svg" xmlns:xlink="http://www.w3.org/1999/xlink" version="1.1" viewBox="0 0 75.7 53.6">
  <!-- Generator: Adobe Illustrator 29.3.1, SVG Export Plug-In . SVG Version: 2.1.0 Build 151)  -->
  <defs>
    <style>
      .st0, .st1 {
        fill: #25292e;
      }

      .st1 {
        fill-opacity: 0;
      }
    </style>
  </defs>
  <rect class="st1" width="75.7" height="53.6"/>
  <path class="st0" d="M9.5,53.6h57.1c5.5,0,8.8-3.2,8.8-9.4V9.4C75.3,3.2,72.1,0,65.8,0H8.8C3.2,0,0,3.2,0,9.4v34.8c0,6.2,3.2,9.4,9.5,9.4ZM9.4,49.5c-3.4,0-5.3-1.9-5.3-5.3V9.4c0-3.4,1.9-5.3,5.3-5.3h56.5c3.4,0,5.2,1.9,5.2,5.3v34.8c0,3.4-1.9,5.3-5.2,5.3H9.4ZM37.6,34.8c2,0,3.8-.7,5.5-2.3l29.7-26.7-2.8-2.8-29.3,26.4c-1,.9-2.1,1.4-3.1,1.4s-2.1-.4-3.1-1.4L5.2,2.9l-2.8,2.8,29.7,26.7c1.8,1.6,3.6,2.3,5.5,2.3ZM5.7,50l22.7-22.7-2.8-2.8L2.9,47.1l2.8,2.9ZM69.7,50l2.8-2.9-22.7-22.7-2.8,2.8,22.8,22.8Z"/>
</svg>